<?xml version="1.0" encoding="UTF-8"?>
<svg xmlns="http://www.w3.org/2000/svg" xmlns:xlink="http://www.w3.org/1999/xlink" width="840.82118pt" height="476.083959pt" viewBox="0 0 840.82118 476.083959" version="1.1">
<g id="surface305988">
<path style="fill-rule:evenodd;fill:rgb(100%,100%,100%);fill-opacity:1;stroke-width:1;stroke-linecap:butt;stroke-linejoin:bevel;stroke:rgb(50.048876%,50.048876%,50.048876%);stroke-opacity:1;stroke-miterlimit:10;" d="M -37.410205 -0.0024343 C -37.410205 -20.576653 -20.574267 -37.408684 -0.0000485735 -37.408684 C 20.57417 -37.408684 37.410108 -20.576653 37.410108 -0.0024343 C 37.410108 20.571784 20.57417 37.407722 -0.0000485735 37.407722 C -20.574267 37.407722 -37.410205 20.571784 -37.410205 -0.0024343 " transform="matrix(1,0,0,1,41.734424,434.396966)"/>
<path style="fill-rule:evenodd;fill:rgb(100%,100%,100%);fill-opacity:1;stroke-width:1;stroke-linecap:butt;stroke-linejoin:bevel;stroke:rgb(50.048876%,50.048876%,50.048876%);stroke-opacity:1;stroke-miterlimit:10;" d="M -11.546013 -0.00212794 C -11.546013 -6.349784 -6.3507 -11.549003 0.000862321 -11.549003 C 6.348519 -11.549003 11.543831 -6.349784 11.543831 -0.00212794 C 11.543831 6.349435 6.348519 11.544747 0.000862321 11.544747 C -6.3507 11.544747 -11.546013 6.349435 -11.546013 -0.00212794 " transform="matrix(1,0,0,1,83.299919,460.25994)"/>
<path style="fill-rule:evenodd;fill:rgb(100%,100%,100%);fill-opacity:1;stroke-width:1;stroke-linecap:butt;stroke-linejoin:bevel;stroke:rgb(50.048876%,50.048876%,50.048876%);stroke-opacity:1;stroke-miterlimit:10;" d="M -5.532742 0.00139385 C -5.532742 -3.045481 -3.04446 -5.533762 -0.00149166 -5.533762 C 3.045383 -5.533762 5.533665 -3.045481 5.533665 0.00139385 C 5.533665 3.044363 3.045383 5.532644 -0.00149166 5.532644 C -3.04446 5.532644 -5.532742 3.044363 -5.532742 0.00139385 " transform="matrix(1,0,0,1,99.286648,466.272044)"/>
<path style="fill-rule:evenodd;fill:rgb(50.048876%,50.048876%,50.048876%);fill-opacity:1;stroke-width:1;stroke-linecap:butt;stroke-linejoin:bevel;stroke:rgb(50.048876%,50.048876%,50.048876%);stroke-opacity:1;stroke-miterlimit:10;" d="M -3.234585 0.000469103 C -3.234585 -1.780781 -1.78146 -3.237812 -0.000210315 -3.237812 C 1.78104 -3.237812 3.234165 -1.780781 3.234165 0.000469103 C 3.234165 1.781719 1.78104 3.234844 -0.000210315 3.234844 C -1.78146 3.234844 -3.234585 1.781719 -3.234585 0.000469103 " transform="matrix(1,0,0,1,107.75021,468.569843)"/>
<path style="fill-rule:evenodd;fill:rgb(100%,100%,100%);fill-opacity:1;stroke-width:1;stroke-linecap:butt;stroke-linejoin:bevel;stroke:rgb(50.048876%,50.048876%,50.048876%);stroke-opacity:1;stroke-miterlimit:10;" d="M -58.452101 -0.00287103 C -58.452101 -32.151309 -32.147413 -58.45209 0.00102438 -58.45209 C 32.149462 -58.45209 58.450243 -32.151309 58.450243 -0.00287103 C 58.450243 32.145566 32.149462 58.450254 0.00102438 58.450254 C -32.147413 58.450254 -58.452101 32.145566 -58.452101 -0.00287103 " transform="matrix(1,0,0,1,135.256788,413.354434)"/>
<path style="fill-rule:evenodd;fill:rgb(100%,100%,100%);fill-opacity:1;stroke-width:1;stroke-linecap:butt;stroke-linejoin:bevel;stroke:rgb(50.048876%,50.048876%,50.048876%);stroke-opacity:1;stroke-miterlimit:10;" d="M -103.912552 -0.00154799 C -103.912552 -57.153892 -57.150833 -103.91561 0.00151054 -103.91561 C 57.153854 -103.91561 103.915573 -57.153892 103.915573 -0.00154799 C 103.915573 57.150796 57.153854 103.912515 0.00151054 103.912515 C -57.150833 103.912515 -103.912552 57.150796 -103.912552 -0.00154799 " transform="matrix(1,0,0,1,291.127396,367.892173)"/>
<path style="fill-rule:evenodd;fill:rgb(100%,100%,100%);fill-opacity:1;stroke-width:1;stroke-linecap:butt;stroke-linejoin:bevel;stroke:rgb(50.048876%,50.048876%,50.048876%);stroke-opacity:1;stroke-miterlimit:10;" d="M -233.806111 0.000000000000028422 C -233.806111 -128.59375 -128.595173 -233.804687 -0.00142337 -233.804687 C 128.592327 -233.804687 233.80717 -128.59375 233.80717 0.000000000000028422 C 233.80717 128.59375 128.592327 233.804688 -0.00142337 233.804688 C -128.595173 233.804688 -233.806111 128.59375 -233.806111 0.000000000000028422 " transform="matrix(1,0,0,1,602.868611,238)"/>
</g>
</svg>
